# xmcd CD database file
#
# Track frame offsets:
#	150
#	16482
#	29751
#	44359
#	56305
#	75681
#	90766
#	99729
#	114765
#	128410
#	146374
#	162693
#	175364
#	193238
#	206848
#	218990
#	239928
#	265505
#	281483
#
# Disc length: 4033 seconds
#
# Revision: 0
# Processed by: cddbd v1.5.2PL0 Copyright (c) Steve Scherf et al.
# Submitted via: CDex 1.51
#
DISCID=110fbf13
DTITLE=get up and dance workshop nr.59 - get up and dance workshop nr.59
DYEAR=2008
DGENRE=Country
TTITLE0=Great Balls of Fire
TTITLE1=Shame On Me
TTITLE2=No Doubt About It
TTITLE3=Dancing In Line
TTITLE4=Kiss Forever
TTITLE5=The Best Man
TTITLE6=Take It Back
TTITLE7=Who Wouldn't
TTITLE8=Lollipop
TTITLE9=Slow Turning
TTITLE10=Zjozzy's Funk
TTITLE11=Blue Note
TTITLE12=Big Girls Boogie
TTITLE13=First Waltz
TTITLE14=P and D Polka
TTITLE15=1
TTITLE16=On THe Shelf
TTITLE17=Pump it Up
TTITLE18=Bodyguard
EXTD=YEAR: 2008
EXTT0=
EXTT1=
EXTT2=
EXTT3=
EXTT4=
EXTT5=
EXTT6=
EXTT7=
EXTT8=
EXTT9=
EXTT10=
EXTT11=
EXTT12=
EXTT13=
EXTT14=
EXTT15=
EXTT16=
EXTT17=
EXTT18=
PLAYORDER=
